
      <svg xmlns="http://www.w3.org/2000/svg" viewBox="0 0 1200 600">
        <defs>
          <style>
            text { font-family: Arial, sans-serif; }
            .title { font-size: 24px; font-weight: bold; }
            .label { font-size: 14px; }
            .value { font-size: 12px; fill: #666666; }
            .axis { font-size: 12px; }
            .legend { font-size: 14px; }
          </style>
        </defs>

        <rect width="1200" height="600" fill="white"/>

        
            <line 
              x1="70" 
              y1="50" 
              x2="1050" 
              y2="50" 
              stroke="#e5e7eb" 
              stroke-dasharray="4"
            />
            <text 
              x="60" 
              y="50" 
              text-anchor="end" 
              class="axis" 
              dominant-baseline="middle"
            >17</text>
          
            <line 
              x1="70" 
              y1="95" 
              x2="1050" 
              y2="95" 
              stroke="#e5e7eb" 
              stroke-dasharray="4"
            />
            <text 
              x="60" 
              y="95" 
              text-anchor="end" 
              class="axis" 
              dominant-baseline="middle"
            >15</text>
          
            <line 
              x1="70" 
              y1="140" 
              x2="1050" 
              y2="140" 
              stroke="#e5e7eb" 
              stroke-dasharray="4"
            />
            <text 
              x="60" 
              y="140" 
              text-anchor="end" 
              class="axis" 
              dominant-baseline="middle"
            >14</text>
          
            <line 
              x1="70" 
              y1="185" 
              x2="1050" 
              y2="185" 
              stroke="#e5e7eb" 
              stroke-dasharray="4"
            />
            <text 
              x="60" 
              y="185" 
              text-anchor="end" 
              class="axis" 
              dominant-baseline="middle"
            >12</text>
          
            <line 
              x1="70" 
              y1="230" 
              x2="1050" 
              y2="230" 
              stroke="#e5e7eb" 
              stroke-dasharray="4"
            />
            <text 
              x="60" 
              y="230" 
              text-anchor="end" 
              class="axis" 
              dominant-baseline="middle"
            >10</text>
          
            <line 
              x1="70" 
              y1="275" 
              x2="1050" 
              y2="275" 
              stroke="#e5e7eb" 
              stroke-dasharray="4"
            />
            <text 
              x="60" 
              y="275" 
              text-anchor="end" 
              class="axis" 
              dominant-baseline="middle"
            >9</text>
          
            <line 
              x1="70" 
              y1="320" 
              x2="1050" 
              y2="320" 
              stroke="#e5e7eb" 
              stroke-dasharray="4"
            />
            <text 
              x="60" 
              y="320" 
              text-anchor="end" 
              class="axis" 
              dominant-baseline="middle"
            >7</text>
          
            <line 
              x1="70" 
              y1="365" 
              x2="1050" 
              y2="365" 
              stroke="#e5e7eb" 
              stroke-dasharray="4"
            />
            <text 
              x="60" 
              y="365" 
              text-anchor="end" 
              class="axis" 
              dominant-baseline="middle"
            >5</text>
          
            <line 
              x1="70" 
              y1="410" 
              x2="1050" 
              y2="410" 
              stroke="#e5e7eb" 
              stroke-dasharray="4"
            />
            <text 
              x="60" 
              y="410" 
              text-anchor="end" 
              class="axis" 
              dominant-baseline="middle"
            >3</text>
          
            <line 
              x1="70" 
              y1="455" 
              x2="1050" 
              y2="455" 
              stroke="#e5e7eb" 
              stroke-dasharray="4"
            />
            <text 
              x="60" 
              y="455" 
              text-anchor="end" 
              class="axis" 
              dominant-baseline="middle"
            >2</text>
          
            <line 
              x1="70" 
              y1="500" 
              x2="1050" 
              y2="500" 
              stroke="#e5e7eb" 
              stroke-dasharray="4"
            />
            <text 
              x="60" 
              y="500" 
              text-anchor="end" 
              class="axis" 
              dominant-baseline="middle"
            >0</text>
          

        <path 
          d="M70,314.7058823529412 L124.44444444444444,314.7058823529412 L178.88888888888889,314.7058823529412 L233.33333333333331,314.7058823529412 L287.77777777777777,314.7058823529412 L342.22222222222223,314.7058823529412 L396.66666666666663,314.7058823529412 L451.1111111111111,314.7058823529412 L505.55555555555554,314.7058823529412 L560,314.7058823529412 L614.4444444444445,314.7058823529412 L668.8888888888889,314.7058823529412 L723.3333333333333,314.7058823529412 L777.7777777777777,314.7058823529412 L832.2222222222222,182.3529411764706 L886.6666666666666,155.88235294117646 L941.1111111111111,102.94117647058829 L995.5555555555555,50 L1050,50 L1050,500 L995.5555555555555,500 L941.1111111111111,500 L886.6666666666666,500 L832.2222222222222,500 L777.7777777777777,500 L723.3333333333333,500 L668.8888888888889,500 L614.4444444444445,500 L560,500 L505.55555555555554,500 L451.1111111111111,500 L396.66666666666663,500 L342.22222222222223,500 L287.77777777777777,500 L233.33333333333331,500 L178.88888888888889,500 L124.44444444444444,500 L70,500 Z" 
          fill="#ef4444" 
          opacity="0.8"
        />
        <path 
          d="M70,394.11764705882354 L124.44444444444444,394.11764705882354 L178.88888888888889,394.11764705882354 L233.33333333333331,394.11764705882354 L287.77777777777777,394.11764705882354 L342.22222222222223,394.11764705882354 L396.66666666666663,394.11764705882354 L451.1111111111111,394.11764705882354 L505.55555555555554,394.11764705882354 L560,394.11764705882354 L614.4444444444445,394.11764705882354 L668.8888888888889,394.11764705882354 L723.3333333333333,394.11764705882354 L777.7777777777777,394.11764705882354 L832.2222222222222,394.11764705882354 L886.6666666666666,394.11764705882354 L941.1111111111111,394.11764705882354 L995.5555555555555,394.11764705882354 L1050,394.11764705882354 L1050,500 L995.5555555555555,500 L941.1111111111111,500 L886.6666666666666,500 L832.2222222222222,500 L777.7777777777777,500 L723.3333333333333,500 L668.8888888888889,500 L614.4444444444445,500 L560,500 L505.55555555555554,500 L451.1111111111111,500 L396.66666666666663,500 L342.22222222222223,500 L287.77777777777777,500 L233.33333333333331,500 L178.88888888888889,500 L124.44444444444444,500 L70,500 Z" 
          fill="#f59e0b" 
          opacity="0.8"
        />
        <path 
          d="M70,394.11764705882354 L124.44444444444444,394.11764705882354 L178.88888888888889,394.11764705882354 L233.33333333333331,394.11764705882354 L287.77777777777777,394.11764705882354 L342.22222222222223,394.11764705882354 L396.66666666666663,394.11764705882354 L451.1111111111111,394.11764705882354 L505.55555555555554,394.11764705882354 L560,394.11764705882354 L614.4444444444445,394.11764705882354 L668.8888888888889,394.11764705882354 L723.3333333333333,394.11764705882354 L777.7777777777777,394.11764705882354 L832.2222222222222,394.11764705882354 L886.6666666666666,394.11764705882354 L941.1111111111111,394.11764705882354 L995.5555555555555,394.11764705882354 L1050,394.11764705882354 L1050,500 L995.5555555555555,500 L941.1111111111111,500 L886.6666666666666,500 L832.2222222222222,500 L777.7777777777777,500 L723.3333333333333,500 L668.8888888888889,500 L614.4444444444445,500 L560,500 L505.55555555555554,500 L451.1111111111111,500 L396.66666666666663,500 L342.22222222222223,500 L287.77777777777777,500 L233.33333333333331,500 L178.88888888888889,500 L124.44444444444444,500 L70,500 Z" 
          fill="#22c55e" 
          opacity="0.8"
        />

        <line 
          x1="70" 
          y1="50" 
          x2="70" 
          y2="500" 
          stroke="black" 
          stroke-width="2"
        />
        <line 
          x1="70" 
          y1="500" 
          x2="1050" 
          y2="500" 
          stroke="black" 
          stroke-width="2"
        />

        
              <text 
                transform="rotate(-45 70 520)"
                x="70"
                y="520"
                text-anchor="end"
                class="axis"
              >seg. 25/11</text>
            
              <text 
                transform="rotate(-45 178.88888888888889 520)"
                x="178.88888888888889"
                y="520"
                text-anchor="end"
                class="axis"
              >qua. 27/11</text>
            
              <text 
                transform="rotate(-45 287.77777777777777 520)"
                x="287.77777777777777"
                y="520"
                text-anchor="end"
                class="axis"
              >sex. 29/11</text>
            
              <text 
                transform="rotate(-45 396.66666666666663 520)"
                x="396.66666666666663"
                y="520"
                text-anchor="end"
                class="axis"
              >dom. 01/12</text>
            
              <text 
                transform="rotate(-45 505.55555555555554 520)"
                x="505.55555555555554"
                y="520"
                text-anchor="end"
                class="axis"
              >ter. 03/12</text>
            
              <text 
                transform="rotate(-45 614.4444444444445 520)"
                x="614.4444444444445"
                y="520"
                text-anchor="end"
                class="axis"
              >qui. 05/12</text>
            
              <text 
                transform="rotate(-45 723.3333333333333 520)"
                x="723.3333333333333"
                y="520"
                text-anchor="end"
                class="axis"
              >sáb. 07/12</text>
            
              <text 
                transform="rotate(-45 832.2222222222222 520)"
                x="832.2222222222222"
                y="520"
                text-anchor="end"
                class="axis"
              >seg. 09/12</text>
            
              <text 
                transform="rotate(-45 941.1111111111111 520)"
                x="941.1111111111111"
                y="520"
                text-anchor="end"
                class="axis"
              >qua. 11/12</text>
            
              <text 
                transform="rotate(-45 1050 520)"
                x="1050"
                y="520"
                text-anchor="end"
                class="axis"
              >sex. 13/12</text>
            

        <text 
          transform="rotate(-90 30 300)" 
          x="30" 
          y="300" 
          text-anchor="middle" 
          class="label"
        >Número de Tarefas</text>

        <text 
          x="600" 
          y="580" 
          text-anchor="middle" 
          class="label"
        >Período do Projeto</text>

        <text 
          x="600" 
          y="30" 
          text-anchor="middle" 
          class="title"
        >Cumulative Flow Diagram - Projeto Completo</text>

        <g transform="translate(1070, 50)">
          <rect width="15" height="15" fill="#ef4444" rx="2"/>
          <text x="25" y="12" class="legend">TODO</text>
          
          <rect y="25" width="15" height="15" fill="#f59e0b" rx="2"/>
          <text x="25" y="37" class="legend">DOING</text>
          
          <rect y="50" width="15" height="15" fill="#22c55e" rx="2"/>
          <text x="25" y="62" class="legend">DONE</text>
          
          <text x="0" y="90" class="value">
            Período: 25/11/2024 - 
            13/12/2024
          </text>
          <text x="0" y="110" class="value">
            Total de Tasks: 17
          </text>
          <text x="0" y="130" class="value">
            Total de Sprints: 2
          </text>
        </g>
      </svg>
    