
        <svg xmlns="http://www.w3.org/2000/svg" viewBox="0 0 1200 600">
          <defs>
            <style>
              text { font-family: Arial, sans-serif; }
              .title { font-size: 24px; font-weight: bold; }
              .label { font-size: 14px; }
              .value { font-size: 12px; fill: #666666; }
              .axis { font-size: 12px; }
              .legend { font-size: 14px; }
            </style>
          </defs>

          <rect width="1200" height="600" fill="white"/>

          
              <line 
                x1="70" 
                y1="50" 
                x2="1050" 
                y2="50" 
                stroke="#e5e7eb" 
                stroke-dasharray="4"
              />
              <text 
                x="60" 
                y="50" 
                text-anchor="end" 
                class="axis" 
                dominant-baseline="middle"
              >2</text>
            
              <line 
                x1="70" 
                y1="95" 
                x2="1050" 
                y2="95" 
                stroke="#e5e7eb" 
                stroke-dasharray="4"
              />
              <text 
                x="60" 
                y="95" 
                text-anchor="end" 
                class="axis" 
                dominant-baseline="middle"
              >2</text>
            
              <line 
                x1="70" 
                y1="140" 
                x2="1050" 
                y2="140" 
                stroke="#e5e7eb" 
                stroke-dasharray="4"
              />
              <text 
                x="60" 
                y="140" 
                text-anchor="end" 
                class="axis" 
                dominant-baseline="middle"
              >2</text>
            
              <line 
                x1="70" 
                y1="185" 
                x2="1050" 
                y2="185" 
                stroke="#e5e7eb" 
                stroke-dasharray="4"
              />
              <text 
                x="60" 
                y="185" 
                text-anchor="end" 
                class="axis" 
                dominant-baseline="middle"
              >1</text>
            
              <line 
                x1="70" 
                y1="230" 
                x2="1050" 
                y2="230" 
                stroke="#e5e7eb" 
                stroke-dasharray="4"
              />
              <text 
                x="60" 
                y="230" 
                text-anchor="end" 
                class="axis" 
                dominant-baseline="middle"
              >1</text>
            
              <line 
                x1="70" 
                y1="275" 
                x2="1050" 
                y2="275" 
                stroke="#e5e7eb" 
                stroke-dasharray="4"
              />
              <text 
                x="60" 
                y="275" 
                text-anchor="end" 
                class="axis" 
                dominant-baseline="middle"
              >1</text>
            
              <line 
                x1="70" 
                y1="320" 
                x2="1050" 
                y2="320" 
                stroke="#e5e7eb" 
                stroke-dasharray="4"
              />
              <text 
                x="60" 
                y="320" 
                text-anchor="end" 
                class="axis" 
                dominant-baseline="middle"
              >1</text>
            
              <line 
                x1="70" 
                y1="365" 
                x2="1050" 
                y2="365" 
                stroke="#e5e7eb" 
                stroke-dasharray="4"
              />
              <text 
                x="60" 
                y="365" 
                text-anchor="end" 
                class="axis" 
                dominant-baseline="middle"
              >1</text>
            
              <line 
                x1="70" 
                y1="410" 
                x2="1050" 
                y2="410" 
                stroke="#e5e7eb" 
                stroke-dasharray="4"
              />
              <text 
                x="60" 
                y="410" 
                text-anchor="end" 
                class="axis" 
                dominant-baseline="middle"
              >0</text>
            
              <line 
                x1="70" 
                y1="455" 
                x2="1050" 
                y2="455" 
                stroke="#e5e7eb" 
                stroke-dasharray="4"
              />
              <text 
                x="60" 
                y="455" 
                text-anchor="end" 
                class="axis" 
                dominant-baseline="middle"
              >0</text>
            
              <line 
                x1="70" 
                y1="500" 
                x2="1050" 
                y2="500" 
                stroke="#e5e7eb" 
                stroke-dasharray="4"
              />
              <text 
                x="60" 
                y="500" 
                text-anchor="end" 
                class="axis" 
                dominant-baseline="middle"
              >0</text>
            

          <path 
            d="M70,50 L168,50 L266,50 L364,50 L462,50 L560,50 L658,50 L756,50 L854,50 L952,50 L1050,50 L1050,500 L952,500 L854,500 L756,500 L658,500 L560,500 L462,500 L364,500 L266,500 L168,500 L70,500 Z" 
            fill="#ef4444" 
            opacity="0.8"
          />
          <path 
            d="M70,500 L168,500 L266,500 L364,500 L462,500 L560,500 L658,500 L756,500 L854,500 L952,500 L1050,500 L1050,500 L952,500 L854,500 L756,500 L658,500 L560,500 L462,500 L364,500 L266,500 L168,500 L70,500 Z" 
            fill="#f59e0b" 
            opacity="0.8"
          />
          <path 
            d="M70,500 L168,500 L266,500 L364,500 L462,500 L560,500 L658,500 L756,500 L854,500 L952,500 L1050,500 L1050,500 L952,500 L854,500 L756,500 L658,500 L560,500 L462,500 L364,500 L266,500 L168,500 L70,500 Z" 
            fill="#22c55e" 
            opacity="0.8"
          />

          <line 
            x1="70" 
            y1="50" 
            x2="70" 
            y2="500" 
            stroke="black" 
            stroke-width="2"
          />
          <line 
            x1="70" 
            y1="500" 
            x2="1050" 
            y2="500" 
            stroke="black" 
            stroke-width="2"
          />

          
                <text 
                  transform="rotate(-45 70 520)"
                  x="70"
                  y="520"
                  text-anchor="end"
                  class="axis"
                >qua. 20/11</text>
              
                <text 
                  transform="rotate(-45 168 520)"
                  x="168"
                  y="520"
                  text-anchor="end"
                  class="axis"
                >qui. 21/11</text>
              
                <text 
                  transform="rotate(-45 266 520)"
                  x="266"
                  y="520"
                  text-anchor="end"
                  class="axis"
                >sex. 22/11</text>
              
                <text 
                  transform="rotate(-45 364 520)"
                  x="364"
                  y="520"
                  text-anchor="end"
                  class="axis"
                >sáb. 23/11</text>
              
                <text 
                  transform="rotate(-45 462 520)"
                  x="462"
                  y="520"
                  text-anchor="end"
                  class="axis"
                >dom. 24/11</text>
              
                <text 
                  transform="rotate(-45 560 520)"
                  x="560"
                  y="520"
                  text-anchor="end"
                  class="axis"
                >seg. 25/11</text>
              
                <text 
                  transform="rotate(-45 658 520)"
                  x="658"
                  y="520"
                  text-anchor="end"
                  class="axis"
                >ter. 26/11</text>
              
                <text 
                  transform="rotate(-45 756 520)"
                  x="756"
                  y="520"
                  text-anchor="end"
                  class="axis"
                >qua. 27/11</text>
              
                <text 
                  transform="rotate(-45 854 520)"
                  x="854"
                  y="520"
                  text-anchor="end"
                  class="axis"
                >qui. 28/11</text>
              
                <text 
                  transform="rotate(-45 952 520)"
                  x="952"
                  y="520"
                  text-anchor="end"
                  class="axis"
                >sex. 29/11</text>
              
                <text 
                  transform="rotate(-45 1050 520)"
                  x="1050"
                  y="520"
                  text-anchor="end"
                  class="axis"
                >sáb. 30/11</text>
              

          <text 
            transform="rotate(-90 30 300)" 
            x="30" 
            y="300" 
            text-anchor="middle" 
            class="label"
          >Número de Tarefas</text>

          <text 
            x="600" 
            y="580" 
            text-anchor="middle" 
            class="label"
          >Dias da Sprint</text>

          <text 
            x="600" 
            y="30" 
            text-anchor="middle" 
            class="title"
          >Estudar Autorizacao - Cumulative Flow Diagram</text>

          <g transform="translate(1070, 50)">
            <rect width="15" height="15" fill="#ef4444" rx="2"/>
            <text x="25" y="12" class="legend">A Fazer</text>
            
            <rect y="25" width="15" height="15" fill="#f59e0b" rx="2"/>
            <text x="25" y="37" class="legend">Em Andamento</text>
            
            <rect y="50" width="15" height="15" fill="#22c55e" rx="2"/>
            <text x="25" y="62" class="legend">Concluído</text>
            
            <text x="0" y="90" class="value">
              Período: 20/11/2024 - 30/11/2024
            </text>
            <text x="0" y="110" class="value">
              Total de Issues: 2
            </text>
          </g>
        </svg>
      