
        <svg xmlns="http://www.w3.org/2000/svg" viewBox="0 0 1200 600">
          <defs>
            <style>
              text { font-family: Arial, sans-serif; }
              .title { font-size: 24px; font-weight: bold; }
              .label { font-size: 14px; }
              .value { font-size: 12px; fill: #666666; }
              .axis { font-size: 12px; }
              .legend { font-size: 14px; }
            </style>
          </defs>

          <rect width="1200" height="600" fill="white"/>

          
              <line 
                x1="70" 
                y1="50" 
                x2="1050" 
                y2="50" 
                stroke="#e5e7eb" 
                stroke-dasharray="4"
              />
              <text 
                x="60" 
                y="50" 
                text-anchor="end" 
                class="axis" 
                dominant-baseline="middle"
              >7</text>
            
              <line 
                x1="70" 
                y1="95" 
                x2="1050" 
                y2="95" 
                stroke="#e5e7eb" 
                stroke-dasharray="4"
              />
              <text 
                x="60" 
                y="95" 
                text-anchor="end" 
                class="axis" 
                dominant-baseline="middle"
              >6</text>
            
              <line 
                x1="70" 
                y1="140" 
                x2="1050" 
                y2="140" 
                stroke="#e5e7eb" 
                stroke-dasharray="4"
              />
              <text 
                x="60" 
                y="140" 
                text-anchor="end" 
                class="axis" 
                dominant-baseline="middle"
              >6</text>
            
              <line 
                x1="70" 
                y1="185" 
                x2="1050" 
                y2="185" 
                stroke="#e5e7eb" 
                stroke-dasharray="4"
              />
              <text 
                x="60" 
                y="185" 
                text-anchor="end" 
                class="axis" 
                dominant-baseline="middle"
              >5</text>
            
              <line 
                x1="70" 
                y1="230" 
                x2="1050" 
                y2="230" 
                stroke="#e5e7eb" 
                stroke-dasharray="4"
              />
              <text 
                x="60" 
                y="230" 
                text-anchor="end" 
                class="axis" 
                dominant-baseline="middle"
              >4</text>
            
              <line 
                x1="70" 
                y1="275" 
                x2="1050" 
                y2="275" 
                stroke="#e5e7eb" 
                stroke-dasharray="4"
              />
              <text 
                x="60" 
                y="275" 
                text-anchor="end" 
                class="axis" 
                dominant-baseline="middle"
              >4</text>
            
              <line 
                x1="70" 
                y1="320" 
                x2="1050" 
                y2="320" 
                stroke="#e5e7eb" 
                stroke-dasharray="4"
              />
              <text 
                x="60" 
                y="320" 
                text-anchor="end" 
                class="axis" 
                dominant-baseline="middle"
              >3</text>
            
              <line 
                x1="70" 
                y1="365" 
                x2="1050" 
                y2="365" 
                stroke="#e5e7eb" 
                stroke-dasharray="4"
              />
              <text 
                x="60" 
                y="365" 
                text-anchor="end" 
                class="axis" 
                dominant-baseline="middle"
              >2</text>
            
              <line 
                x1="70" 
                y1="410" 
                x2="1050" 
                y2="410" 
                stroke="#e5e7eb" 
                stroke-dasharray="4"
              />
              <text 
                x="60" 
                y="410" 
                text-anchor="end" 
                class="axis" 
                dominant-baseline="middle"
              >1</text>
            
              <line 
                x1="70" 
                y1="455" 
                x2="1050" 
                y2="455" 
                stroke="#e5e7eb" 
                stroke-dasharray="4"
              />
              <text 
                x="60" 
                y="455" 
                text-anchor="end" 
                class="axis" 
                dominant-baseline="middle"
              >1</text>
            
              <line 
                x1="70" 
                y1="500" 
                x2="1050" 
                y2="500" 
                stroke="#e5e7eb" 
                stroke-dasharray="4"
              />
              <text 
                x="60" 
                y="500" 
                text-anchor="end" 
                class="axis" 
                dominant-baseline="middle"
              >0</text>
            

          <path 
            d="M70,49.99999999999994 L159.0909090909091,49.99999999999994 L248.1818181818182,49.99999999999994 L337.27272727272725,49.99999999999994 L426.3636363636364,49.99999999999994 L515.4545454545455,49.99999999999994 L604.5454545454545,49.99999999999994 L693.6363636363636,49.99999999999994 L782.7272727272727,49.99999999999994 L871.8181818181819,49.99999999999994 L960.909090909091,49.99999999999994 L1050,49.99999999999994 L1050,500 L960.909090909091,500 L871.8181818181819,500 L782.7272727272727,500 L693.6363636363636,500 L604.5454545454545,500 L515.4545454545455,500 L426.3636363636364,500 L337.27272727272725,500 L248.1818181818182,500 L159.0909090909091,500 L70,500 Z" 
            fill="#ef4444" 
            opacity="0.8"
          />
          <path 
            d="M70,49.99999999999994 L159.0909090909091,49.99999999999994 L248.1818181818182,49.99999999999994 L337.27272727272725,49.99999999999994 L426.3636363636364,49.99999999999994 L515.4545454545455,49.99999999999994 L604.5454545454545,49.99999999999994 L693.6363636363636,49.99999999999994 L782.7272727272727,49.99999999999994 L871.8181818181819,49.99999999999994 L960.909090909091,49.99999999999994 L1050,49.99999999999994 L1050,500 L960.909090909091,500 L871.8181818181819,500 L782.7272727272727,500 L693.6363636363636,500 L604.5454545454545,500 L515.4545454545455,500 L426.3636363636364,500 L337.27272727272725,500 L248.1818181818182,500 L159.0909090909091,500 L70,500 Z" 
            fill="#f59e0b" 
            opacity="0.8"
          />
          <path 
            d="M70,500 L159.0909090909091,500 L248.1818181818182,500 L337.27272727272725,500 L426.3636363636364,500 L515.4545454545455,500 L604.5454545454545,500 L693.6363636363636,500 L782.7272727272727,371.42857142857144 L871.8181818181819,307.1428571428571 L960.909090909091,307.1428571428571 L1050,242.85714285714283 L1050,500 L960.909090909091,500 L871.8181818181819,500 L782.7272727272727,500 L693.6363636363636,500 L604.5454545454545,500 L515.4545454545455,500 L426.3636363636364,500 L337.27272727272725,500 L248.1818181818182,500 L159.0909090909091,500 L70,500 Z" 
            fill="#22c55e" 
            opacity="0.8"
          />

          <line 
            x1="70" 
            y1="50" 
            x2="70" 
            y2="500" 
            stroke="black" 
            stroke-width="2"
          />
          <line 
            x1="70" 
            y1="500" 
            x2="1050" 
            y2="500" 
            stroke="black" 
            stroke-width="2"
          />

          
                <text 
                  transform="rotate(-45 70 520)"
                  x="70"
                  y="520"
                  text-anchor="end"
                  class="axis"
                >seg. 25/11</text>
              
                <text 
                  transform="rotate(-45 159.0909090909091 520)"
                  x="159.0909090909091"
                  y="520"
                  text-anchor="end"
                  class="axis"
                >ter. 26/11</text>
              
                <text 
                  transform="rotate(-45 248.1818181818182 520)"
                  x="248.1818181818182"
                  y="520"
                  text-anchor="end"
                  class="axis"
                >qua. 27/11</text>
              
                <text 
                  transform="rotate(-45 337.27272727272725 520)"
                  x="337.27272727272725"
                  y="520"
                  text-anchor="end"
                  class="axis"
                >qui. 28/11</text>
              
                <text 
                  transform="rotate(-45 426.3636363636364 520)"
                  x="426.3636363636364"
                  y="520"
                  text-anchor="end"
                  class="axis"
                >sex. 29/11</text>
              
                <text 
                  transform="rotate(-45 515.4545454545455 520)"
                  x="515.4545454545455"
                  y="520"
                  text-anchor="end"
                  class="axis"
                >sáb. 30/11</text>
              
                <text 
                  transform="rotate(-45 604.5454545454545 520)"
                  x="604.5454545454545"
                  y="520"
                  text-anchor="end"
                  class="axis"
                >dom. 01/12</text>
              
                <text 
                  transform="rotate(-45 693.6363636363636 520)"
                  x="693.6363636363636"
                  y="520"
                  text-anchor="end"
                  class="axis"
                >seg. 02/12</text>
              
                <text 
                  transform="rotate(-45 782.7272727272727 520)"
                  x="782.7272727272727"
                  y="520"
                  text-anchor="end"
                  class="axis"
                >ter. 03/12</text>
              
                <text 
                  transform="rotate(-45 871.8181818181819 520)"
                  x="871.8181818181819"
                  y="520"
                  text-anchor="end"
                  class="axis"
                >qua. 04/12</text>
              
                <text 
                  transform="rotate(-45 960.909090909091 520)"
                  x="960.909090909091"
                  y="520"
                  text-anchor="end"
                  class="axis"
                >qui. 05/12</text>
              
                <text 
                  transform="rotate(-45 1050 520)"
                  x="1050"
                  y="520"
                  text-anchor="end"
                  class="axis"
                >sex. 06/12</text>
              

          <text 
            transform="rotate(-90 30 300)" 
            x="30" 
            y="300" 
            text-anchor="middle" 
            class="label"
          >Número de Tarefas</text>

          <text 
            x="600" 
            y="580" 
            text-anchor="middle" 
            class="label"
          >Dias da Sprint</text>

          <text 
            x="600" 
            y="30" 
            text-anchor="middle" 
            class="title"
          >Entender os objetivos organizacionais - Cumulative Flow Diagram</text>

          <g transform="translate(1070, 50)">
            <rect width="15" height="15" fill="#ef4444" rx="2"/>
            <text x="25" y="12" class="legend">A Fazer</text>
            
            <rect y="25" width="15" height="15" fill="#f59e0b" rx="2"/>
            <text x="25" y="37" class="legend">Em Andamento</text>
            
            <rect y="50" width="15" height="15" fill="#22c55e" rx="2"/>
            <text x="25" y="62" class="legend">Concluído</text>
            
            <text x="0" y="90" class="value">
              Período: 25/11/2024 - 06/12/2024
            </text>
            <text x="0" y="110" class="value">
              Total de Issues: 7
            </text>
          </g>
        </svg>
      